<?xml version="1.0" encoding="utf-8"?>
<!-- Uploaded to: SVG Repo, www.svgrepo.com, Generator: SVG Repo Mixer Tools -->
<svg version="1.2" baseProfile="tiny" id="Layer_1" xmlns="http://www.w3.org/2000/svg" xmlns:xlink="http://www.w3.org/1999/xlink"
	  viewBox="0 0 256 256" xml:space="preserve">
<g>
	<path d="M105.6,79.4c0-10.8,8.7-19.6,19.6-19.6h6.8c1.4,0,2.6-1.2,2.6-2.6c0-0.6-0.2-1-0.4-1.4c-1.8-2.2-2.7-5-2.7-8
		c0-7.3,5.9-13.2,13.2-13.2h1V30h-1c-9.8,0-17.8,8-17.8,17.8c0,2.6,0.6,5.2,1.6,7.4h-3.3c-13.3,0-24.2,10.9-24.2,24.2v10.1h4.6V79.4
		z"/>
	<path d="M118.7,80.3v9.1h4.6v-9.1c0-3.8,3-6.8,6.8-6.8h16.7c7,0,12.8-5.7,12.8-12.7c0-1.4-0.2-2.6-0.6-3.8
		c8.7-0.2,15.7-7.3,15.7-16c0-8.8-7-15.9-15.8-16.1v4.6c6.2,0.1,11.3,5.2,11.3,11.4c0,6.3-5.1,11.4-11.4,11.4
		c-0.8,0-1.5-0.1-2.3-0.2c-0.2-0.1-0.5-0.1-0.6-0.1c-1.5,0-2.7,1.2-2.7,2.7c0,0.6,0.2,1,0.5,1.5c0.9,1.3,1.4,2.9,1.4,4.6
		c0,4.5-3.6,8.1-8.1,8.1h-16.7C123.8,68.9,118.7,74,118.7,80.3z"/>
	<g>
		<path fill="none" d="M181.8,126l0,32.3V171c12.1-0.4,21.8-10.3,21.8-22.5C203.6,136.3,193.9,126.4,181.8,126z"/>
		<polygon fill="none" points="81,118.7 81,134.7 170.6,134.7 170.6,103.5 81,103.5 		"/>
		<path d="M216.5,148.5c0-19.3-15.5-35.1-34.7-35.5l0-16.7v-3.9h-0.5h-6.7H76.9h-7.1c0,0.4-0.1,0.8-0.1,1.2v39.6V190
			c0,11.4,9.5,20.9,21.2,20.9h69.7c11.7,0,21.2-9.3,21.2-20.9v-6C201,183.6,216.5,167.9,216.5,148.5z M170.6,134.7H81v-16v-15.2
			h89.6V134.7z M181.7,171v-12.7l0-32.3c12.1,0.4,21.8,10.3,21.8,22.5C203.6,160.7,193.8,170.6,181.7,171z"/>
	</g>
</g>
<rect y="220.9" width="256" height="35.1"/>
</svg>